<svg xmlns="http://www.w3.org/2000/svg" viewBox="0 0 16 16"><g fill="#1976D2"><path d="M9.972 5.118c.976.249 2.04-.62 2.376-1.942.437-1.72-.924-2.784-1.158-2.843-.976-.249-2.04.62-2.376 1.942-.337 1.321.181 2.594 1.158 2.843z"/><ellipse cx="6.038" cy="2.445" rx="1.769" ry="2.445"/><path d="M13.478 4.787c-1.027.015-1.842.992-1.819 2.505.022 1.513.872 2.202 1.899 2.187 1.026-.015 1.841-.729 1.819-2.242-.029-1.97-1.653-2.454-1.899-2.45z"/><ellipse cx="2.45" cy="6.099" rx="1.824" ry="2.469" transform="rotate(-4.002 2.449 6.097)"/><path d="M12.538 10.467c-.879-.773-1.625-1.402-2.791-3.023-.578-.801-1.243-.904-1.939-.904-.697 0-1.431.245-1.995 1.055-.564.81-1.204 1.602-2.447 2.639-1.242 1.037-1.769 1.753-1.769 2.808s.602 2.808 2.315 2.808 2.541-.377 3.896-.377 2.258.527 3.971.527 2.428-1.621 2.428-2.676c0-1.055-.297-1.653-1.669-2.857z"/></g></svg>